<?xml version="1.0" encoding="utf-8"?>
<!-- Generator: Adobe Illustrator 15.1.0, SVG Export Plug-In . SVG Version: 6.00 Build 0)  -->
<!DOCTYPE svg PUBLIC "-//W3C//DTD SVG 1.1//EN" "http://www.w3.org/Graphics/SVG/1.1/DTD/svg11.dtd">
<svg version="1.1" id="Layer_1" xmlns="http://www.w3.org/2000/svg" xmlns:xlink="http://www.w3.org/1999/xlink" x="0px" y="0px"
	 width="2267.72px" height="1700.79px" viewBox="0 0 2267.72 1700.79" enable-background="new 0 0 2267.72 1700.79"
	 xml:space="preserve">
<g>
	<path fill="none" stroke="#000000" stroke-miterlimit="10" d="M2225.198,1615.748c0,23.482-19.036,42.52-42.52,42.52H85.041
		c-23.483,0-42.52-19.037-42.52-42.52V85.039c0-23.483,19.037-42.52,42.52-42.52h2097.638c23.483,0,42.52,19.037,42.52,42.52
		V1615.748z"/>
	<rect x="42.521" y="1488.188" fill="none" stroke="#000000" stroke-miterlimit="10" width="2182.677" height="85.039"/>
</g>
<text transform="matrix(1 0 0 1 68.3682 1538.377)"><tspan x="0" y="0" fill="none" stroke="#F68827" stroke-miterlimit="10" font-family="'Eng_HelvLine'" font-size="24">Date: 24-06-14</tspan><tspan x="207.599" y="0" fill="none" stroke="#F68827" stroke-miterlimit="10" font-family="'Eng_HelvLine'" font-size="24" letter-spacing="-3">	</tspan><tspan x="216.001" y="0" fill="none" stroke="#F68827" stroke-miterlimit="10" font-family="'Eng_HelvLine'" font-size="24" letter-spacing="24">	</tspan><tspan x="252.001" y="0" fill="none" stroke="#F68827" stroke-miterlimit="10" font-family="'Eng_HelvLine'" font-size="24">File Name: PARC-09-PUB</tspan><tspan x="623.637" y="0" fill="none" stroke="#F68827" stroke-miterlimit="10" font-family="'Eng_HelvLine'" font-size="24" letter-spacing="12">	</tspan><tspan x="648.001" y="0" fill="none" stroke="#F68827" stroke-miterlimit="10" font-family="'Eng_HelvLine'" font-size="24" letter-spacing="24">	</tspan><tspan x="684.001" y="0" fill="none" stroke="#F68827" stroke-miterlimit="10" font-family="'Eng_HelvLine'" font-size="24">Version:</tspan><tspan x="802.559" y="0" fill="none" stroke="#F68827" stroke-miterlimit="10" font-family="'Eng_HelvLine'" font-size="24" letter-spacing="13">	</tspan><tspan x="828" y="0" fill="none" stroke="#F68827" stroke-miterlimit="10" font-family="'Eng_HelvLine'" font-size="24" letter-spacing="24">	</tspan><tspan x="864" y="0" fill="none" stroke="#F68827" stroke-miterlimit="10" font-family="'Eng_HelvLine'" font-size="24">Contributor: Stuart Childs stuchilds</tspan><tspan x="1388.01" y="0" fill="none" stroke="#F68827" stroke-miterlimit="10" font-family="'MyriadPro-Regular'" font-size="24">@</tspan><tspan x="1405.697" y="0" fill="none" stroke="#F68827" stroke-miterlimit="10" font-family="'Eng_HelvLine'" font-size="24">gmail.com</tspan><tspan x="1554.136" y="0" fill="none" stroke="#F68827" stroke-miterlimit="10" font-family="'Eng_HelvLine'" font-size="24" letter-spacing="17">	</tspan><tspan x="1584" y="0" fill="none" stroke="#F68827" stroke-miterlimit="10" font-family="'Eng_HelvLine'" font-size="24" letter-spacing="24">	</tspan><tspan x="0" y="86.4" fill="none" stroke="#F68827" stroke-miterlimit="10" font-family="'Eng_HelvLine'" font-size="36">License: Creative Commons Attribution 4.0 International License</tspan><tspan x="1424.217" y="86.4" fill="none" stroke="#F68827" stroke-miterlimit="10" font-family="'Eng_HelvLine'" font-size="36" letter-spacing="-2">	</tspan><tspan x="1440.002" y="86.4" fill="none" stroke="#F68827" stroke-miterlimit="10" font-family="'Eng_HelvLine'" font-size="36" letter-spacing="18">	</tspan></text>
<rect x="2172.826" y="1443.826" fill="none" stroke="#F68827" stroke-miterlimit="10" width="28.347" height="28.347"/>
<g>
	<path fill="none" stroke="#F68827" stroke-miterlimit="10" d="M1830.944,1460.075c0,2.881,2.197,4.033,4.771,4.033
		c2.611,0,4.249-1.639,4.304-3.241c0.054-1.585-0.757-2.845-2.359-3.188l-4.411-0.954c-1.242-0.27-1.98-0.99-1.98-2.683
		s1.423-3.15,4.016-3.15s4.483,1.224,4.411,3.366c0.072-2.143-1.818-3.366-4.411-3.366s-4.016,1.458-4.016,3.15
		s0.702,2.395,1.98,2.683l4.411,0.954c1.639,0.343,2.413,1.603,2.359,3.188c-0.055,1.603-1.692,3.241-4.304,3.241
		C1833.142,1464.108,1830.944,1462.956,1830.944,1460.075z"/>
	<path fill="none" stroke="#F68827" stroke-miterlimit="10" d="M1851.719,1461.065c-0.054,1.512-1.674,2.935-3.205,2.935
		c-1.512,0-4.123-0.252-4.123-4.771c0-4.501,2.917-4.556,4.195-4.556s2.971,0.99,3.079,2.251c-0.108-1.261-1.801-2.251-3.079-2.251
		s-4.195,0.055-4.195,4.556c0,4.52,2.611,4.771,4.123,4.771C1850.045,1464,1851.665,1462.577,1851.719,1461.065z"/>
	<path fill="none" stroke="#F68827" stroke-miterlimit="10" d="M1858.629,1464.108c-1.494-0.055-2.683-0.522-2.683-2.179
		c0-1.675,1.009-2.377,2.917-2.557c1.891-0.181,2.737-0.469,3.637-0.721c-0.899,0.252-1.746,0.54-3.637,0.721
		c-1.908,0.18-2.917,0.882-2.917,2.557C1855.946,1463.586,1857.135,1464.054,1858.629,1464.108c1.477,0.054,3.331-1.692,3.871-2.467
		C1861.96,1462.416,1860.105,1464.162,1858.629,1464.108z M1862.5,1462.83v-5.924c0-0.757-0.378-2.197-2.809-2.197
		s-3.331,1.099-3.331,2.232c0-1.134,0.9-2.232,3.331-2.232s2.809,1.44,2.809,2.197V1462.83c0,1.08,1.279,1.17,1.279,1.17
		S1862.5,1463.91,1862.5,1462.83z"/>
	<path fill="none" stroke="#F68827" stroke-miterlimit="10" d="M1869.986,1464v-12.981V1464z"/>
	<path fill="none" stroke="#F68827" stroke-miterlimit="10" d="M1875.999,1459.066h8.048c0-1.998-0.792-4.556-3.655-4.556
		c-2.845,0-4.411,1.945-4.411,4.916c0,2.989,2.017,4.573,4.411,4.501c2.413-0.072,3.457-1.944,3.583-2.61
		c-0.126,0.666-1.17,2.538-3.583,2.61c-2.395,0.072-4.411-1.512-4.411-4.501c0-2.971,1.566-4.916,4.411-4.916
		c2.863,0,3.655,2.558,3.655,4.556H1875.999z"/>
	<path fill="none" stroke="#F68827" stroke-miterlimit="10" d="M1890.436,1458.311v-0.99V1458.311z M1890.436,1464v-0.99V1464z"/>
	<path fill="none" stroke="#F68827" stroke-miterlimit="10" d="M1911.693,1456.42c0.036-0.45-0.558-1.711-2.826-1.801
		c-2.269-0.054-3.313,0.666-3.313,2.053c0,1.404,1.171,1.837,1.603,1.963l3.403,1.008c0.45,0.108,1.53,0.595,1.53,1.927
		s-1.422,2.431-3.223,2.431s-3.439-0.954-3.439-2.358c0,1.404,1.639,2.358,3.439,2.358s3.223-1.099,3.223-2.431
		s-1.08-1.818-1.53-1.927l-3.403-1.008c-0.432-0.126-1.603-0.559-1.603-1.963c0-1.387,1.045-2.106,3.313-2.053
		C1911.136,1454.709,1911.729,1455.97,1911.693,1456.42z"/>
	<path fill="none" stroke="#F68827" stroke-miterlimit="10" d="M1916.265,1459.337c0-3.638,1.729-4.718,3.817-4.718
		c2.106,0,3.816,1.08,3.816,4.718c0,3.655-1.71,4.699-3.816,4.699C1917.993,1464.036,1916.265,1462.992,1916.265,1459.337z
		 M1916.265,1459.337c0-3.638,1.729-4.718,3.817-4.718c2.106,0,3.816,1.08,3.816,4.718c0,3.655-1.71,4.699-3.816,4.699
		C1917.993,1464.036,1916.265,1462.992,1916.265,1459.337z M1923.935,1454.619v13.018V1454.619z"/>
	<path fill="none" stroke="#F68827" stroke-miterlimit="10" d="M1931.133,1454.728c0,0,0,6.031,0,6.859
		c0,0.829,0.828,2.377,3.114,2.396c2.305,0.018,3.529-1.765,3.529-3.422c0,1.657-1.225,3.439-3.529,3.422
		c-2.286-0.019-3.114-1.566-3.114-2.396C1931.133,1460.759,1931.133,1454.728,1931.133,1454.728z M1937.776,1454.728v9.255V1454.728
		z"/>
	<path fill="none" stroke="#F68827" stroke-miterlimit="10" d="M1950.609,1461.642c-0.54,0.774-2.395,2.521-3.871,2.467
		c-1.494-0.055-2.683-0.522-2.683-2.179c0-1.675,1.009-2.377,2.917-2.557c1.891-0.181,2.737-0.469,3.637-0.721
		c-0.899,0.252-1.746,0.54-3.637,0.721c-1.908,0.18-2.917,0.882-2.917,2.557c0,1.656,1.188,2.124,2.683,2.179
		C1948.215,1464.162,1950.069,1462.416,1950.609,1461.642z M1951.889,1464c0,0-1.279-0.09-1.279-1.17v-5.924
		c0-0.757-0.378-2.197-2.809-2.197s-3.331,1.099-3.331,2.232c0-1.134,0.9-2.232,3.331-2.232s2.809,1.44,2.809,2.197v5.924
		C1950.609,1463.91,1951.889,1464,1951.889,1464z"/>
	<path fill="none" stroke="#F68827" stroke-miterlimit="10" d="M1961.68,1454.764c-1.675-0.019-3.584,2.448-3.529,4.519
		C1958.096,1457.212,1960.005,1454.745,1961.68,1454.764z M1958.15,1454.764V1464V1454.764z"/>
	<path fill="none" stroke="#F68827" stroke-miterlimit="10" d="M1965.836,1459.066h8.048c0-1.998-0.792-4.556-3.655-4.556
		c-2.845,0-4.411,1.945-4.411,4.916c0,2.989,2.017,4.573,4.411,4.501c2.413-0.072,3.457-1.944,3.584-2.61
		c-0.127,0.666-1.171,2.538-3.584,2.61c-2.395,0.072-4.411-1.512-4.411-4.501c0-2.971,1.566-4.916,4.411-4.916
		c2.863,0,3.655,2.558,3.655,4.556H1965.836z"/>
	<path fill="none" stroke="#F68827" stroke-miterlimit="10" d="M1989.29,1451.324V1451V1451.324z M1989.29,1463.982v-9.237
		C1989.29,1454.745,1989.29,1464.018,1989.29,1463.982z"/>
	<path fill="none" stroke="#F68827" stroke-miterlimit="10" d="M1998.723,1454.619c-2.269-0.054-3.313,0.666-3.313,2.053
		c0,1.404,1.171,1.837,1.603,1.963l3.403,1.008c0.45,0.108,1.53,0.595,1.53,1.927s-1.422,2.431-3.223,2.431
		s-3.439-0.954-3.439-2.358c0,1.404,1.639,2.358,3.439,2.358s3.223-1.099,3.223-2.431s-1.08-1.818-1.53-1.927l-3.403-1.008
		c-0.432-0.126-1.603-0.559-1.603-1.963C1995.409,1455.285,1996.454,1454.565,1998.723,1454.619c2.269,0.09,2.862,1.351,2.826,1.801
		C2001.585,1455.97,2000.991,1454.709,1998.723,1454.619z"/>
	<path fill="none" stroke="#F68827" stroke-miterlimit="10" d="M2018.198,1464v-12.981c0,2.214-2.143,2.736-3.062,2.809
		c0.919-0.072,3.062-0.595,3.062-2.809V1464z"/>
	<path fill="none" stroke="#F68827" stroke-miterlimit="10" d="M2024.245,1457.518c0-3.564,0.757-6.481,3.926-6.481
		s3.925,2.917,3.925,6.481c0,3.584-0.756,6.482-3.925,6.482S2024.245,1461.102,2024.245,1457.518z M2024.245,1457.518
		c0-3.564,0.757-6.481,3.926-6.481s3.925,2.917,3.925,6.481c0,3.584-0.756,6.482-3.925,6.482S2024.245,1461.102,2024.245,1457.518z"
		/>
	<path fill="none" stroke="#F68827" stroke-miterlimit="10" d="M2044.443,1464c0,0,0-6.014,0-6.842s-0.54-2.377-2.827-2.395
		c-2.287-0.019-3.313,1.764-3.313,3.421c0-1.657,1.026-3.439,3.313-3.421c2.287,0.018,2.827,1.566,2.827,2.395
		S2044.443,1464,2044.443,1464z M2038.303,1464v-9.236V1464z M2050.637,1464c0,0,0-6.014,0-6.842s-0.792-2.377-3.079-2.395
		c-2.286-0.019-3.114,1.764-3.114,3.421c0-1.657,0.828-3.439,3.114-3.421c2.287,0.018,3.079,1.566,3.079,2.395
		S2050.637,1464,2050.637,1464z"/>
	<path fill="none" stroke="#F68827" stroke-miterlimit="10" d="M2064.207,1464c0,0,0-6.014,0-6.842s-0.54-2.377-2.827-2.395
		c-2.287-0.019-3.313,1.764-3.313,3.421c0-1.657,1.026-3.439,3.313-3.421c2.287,0.018,2.827,1.566,2.827,2.395
		S2064.207,1464,2064.207,1464z M2058.066,1464v-9.236V1464z M2070.4,1464c0,0,0-6.014,0-6.842s-0.792-2.377-3.079-2.395
		c-2.286-0.019-3.114,1.764-3.114,3.421c0-1.657,0.828-3.439,3.114-3.421c2.287,0.018,3.079,1.566,3.079,2.395
		S2070.4,1464,2070.4,1464z"/>
	<path fill="none" stroke="#F68827" stroke-miterlimit="10" d="M2084.886,1464l3.709-5.149l-2.952-4.087l2.952,4.087l2.972-4.087
		l-2.972,4.087l3.728,5.149l-3.728-5.149L2084.886,1464z"/>
	<path fill="none" stroke="#F68827" stroke-miterlimit="10" d="M2108.63,1464v-12.981c0,2.214-2.143,2.736-3.062,2.809
		c0.919-0.072,3.062-0.595,3.062-2.809V1464z"/>
	<path fill="none" stroke="#F68827" stroke-miterlimit="10" d="M2114.676,1457.518c0-3.564,0.757-6.481,3.926-6.481
		s3.925,2.917,3.925,6.481c0,3.584-0.756,6.482-3.925,6.482S2114.676,1461.102,2114.676,1457.518z M2114.676,1457.518
		c0-3.564,0.757-6.481,3.926-6.481s3.925,2.917,3.925,6.481c0,3.584-0.756,6.482-3.925,6.482S2114.676,1461.102,2114.676,1457.518z"
		/>
	<path fill="none" stroke="#F68827" stroke-miterlimit="10" d="M2134.875,1457.158c0-0.828-0.54-2.377-2.827-2.395
		c-2.287-0.019-3.313,1.764-3.313,3.421c0-1.657,1.026-3.439,3.313-3.421C2134.335,1454.781,2134.875,1456.33,2134.875,1457.158
		s0,6.842,0,6.842S2134.875,1457.986,2134.875,1457.158z M2128.734,1454.764V1464V1454.764z M2141.068,1457.158
		c0-0.828-0.792-2.377-3.079-2.395c-2.286-0.019-3.114,1.764-3.114,3.421c0-1.657,0.828-3.439,3.114-3.421
		C2140.276,1454.781,2141.068,1456.33,2141.068,1457.158s0,6.842,0,6.842S2141.068,1457.986,2141.068,1457.158z"/>
	<path fill="none" stroke="#F68827" stroke-miterlimit="10" d="M2154.639,1457.158c0-0.828-0.54-2.377-2.827-2.395
		c-2.287-0.019-3.313,1.764-3.313,3.421c0-1.657,1.026-3.439,3.313-3.421C2154.099,1454.781,2154.639,1456.33,2154.639,1457.158
		s0,6.842,0,6.842S2154.639,1457.986,2154.639,1457.158z M2148.498,1454.764V1464V1454.764z M2160.832,1457.158
		c0-0.828-0.792-2.377-3.079-2.395c-2.286-0.019-3.114,1.764-3.114,3.421c0-1.657,0.828-3.439,3.114-3.421
		C2160.04,1454.781,2160.832,1456.33,2160.832,1457.158s0,6.842,0,6.842S2160.832,1457.986,2160.832,1457.158z"/>
</g>
<path fill="none" stroke="#FFF200" stroke-width="0.7087" stroke-linecap="round" stroke-linejoin="round" d="M371.456,296.189
	H130.512c-7.852,0-14.176,6.324-14.176,14.176v147.4c0,7.852,6.324,14.176,14.176,14.176h240.943
	c7.852,0,14.176-6.324,14.176-14.176v-147.4C385.631,302.513,379.307,296.189,371.456,296.189z"/>
<circle fill="none" stroke="#000000" stroke-width="0.7087" stroke-linecap="round" stroke-linejoin="round" stroke-miterlimit="22.9256" cx="364.383" cy="452.464" r="4.252"/>
<circle fill="none" stroke="#000000" stroke-width="0.7087" stroke-linecap="round" stroke-linejoin="round" stroke-miterlimit="22.9256" cx="137.583" cy="452.464" r="4.252"/>
<circle fill="none" stroke="#000000" stroke-width="0.7087" stroke-linecap="round" stroke-linejoin="round" stroke-miterlimit="22.9256" cx="364.383" cy="315.666" r="4.252"/>
<circle fill="none" stroke="#000000" stroke-width="0.7087" stroke-linecap="round" stroke-linejoin="round" stroke-miterlimit="22.9256" cx="137.583" cy="315.666" r="4.252"/>
<rect x="129.095" y="307.531" fill="none" stroke="#F58220" stroke-width="0.7087" stroke-linecap="round" stroke-linejoin="round" stroke-miterlimit="22.9256" width="243.78" height="153.07"/>
<path fill="none" stroke="#FFF200" stroke-width="0.7087" stroke-linecap="round" stroke-linejoin="round" d="M371.456,106.268
	H130.512c-7.852,0-14.176,6.324-14.176,14.176v147.399c0,7.852,6.324,14.176,14.176,14.176h240.943
	c7.852,0,14.176-6.324,14.176-14.176V120.444C385.631,112.592,379.307,106.268,371.456,106.268z"/>
<circle fill="none" stroke="#000000" stroke-width="0.7087" stroke-linecap="round" stroke-linejoin="round" stroke-miterlimit="22.9256" cx="364.383" cy="262.543" r="4.252"/>
<circle fill="none" stroke="#000000" stroke-width="0.7087" stroke-linecap="round" stroke-linejoin="round" stroke-miterlimit="22.9256" cx="364.383" cy="125.744" r="4.252"/>
<circle fill="none" stroke="#000000" stroke-width="0.7087" stroke-linecap="round" stroke-linejoin="round" stroke-miterlimit="22.9256" cx="137.583" cy="125.744" r="4.252"/>
<path fill="none" stroke="#000000" stroke-width="0.7087" stroke-linecap="round" stroke-linejoin="round" d="M156.082,244.289
	h-9.921c-1.963,0-3.544,1.582-3.544,3.545v10.458h-5.033c-2.348,0-4.251,1.904-4.251,4.252c0,2.349,1.903,4.252,4.251,4.252h5.033
	v5.132c0,1.963,1.581,3.543,3.544,3.543h9.921c1.963,0,3.544-1.58,3.544-3.543v-24.094
	C159.625,245.871,158.044,244.289,156.082,244.289z"/>
<circle fill="none" stroke="#000000" stroke-width="0.7087" stroke-linecap="round" stroke-linejoin="round" stroke-miterlimit="22.9256" cx="279.347" cy="165.78" r="4.252"/>
<circle fill="none" stroke="#000000" stroke-width="0.7087" stroke-linecap="round" stroke-linejoin="round" stroke-miterlimit="22.9256" cx="222.655" cy="165.78" r="4.252"/>
<circle fill="none" stroke="#000000" stroke-width="0.7087" stroke-linecap="round" stroke-linejoin="round" stroke-miterlimit="22.9256" cx="279.347" cy="222.473" r="4.252"/>
<circle fill="none" stroke="#000000" stroke-width="0.7087" stroke-linecap="round" stroke-linejoin="round" stroke-miterlimit="22.9256" cx="222.655" cy="222.473" r="4.252"/>
<path fill="none" stroke="#000000" stroke-width="0.7087" stroke-linecap="round" stroke-linejoin="round" stroke-miterlimit="22.9256" d="
	M250.967,161.562c-17.999,0-32.599,14.592-32.599,32.598c0,17.999,14.6,32.599,32.599,32.599s32.599-14.6,32.599-32.599
	C283.566,176.154,268.966,161.562,250.967,161.562z"/>
<path fill="none" stroke="#000000" stroke-miterlimit="10" d="M144.802,551.55h-7.58v-12.982v12.982H144.802z"/>
<path fill="none" stroke="#000000" stroke-miterlimit="10" d="M155.691,549.191c-0.54,0.774-2.395,2.521-3.871,2.467
	c-1.495-0.054-2.683-0.522-2.683-2.179c0-1.674,1.008-2.376,2.917-2.557c1.891-0.18,2.737-0.468,3.637-0.72
	c-0.9,0.252-1.747,0.54-3.637,0.72c-1.909,0.18-2.917,0.882-2.917,2.557c0,1.657,1.188,2.125,2.683,2.179
	C153.296,551.712,155.151,549.966,155.691,549.191z M156.969,551.55c0,0-1.278-0.09-1.278-1.17v-5.924
	c0-0.756-0.378-2.196-2.809-2.196c-2.431,0-3.331,1.098-3.331,2.232c0-1.134,0.9-2.232,3.331-2.232c2.431,0,2.809,1.44,2.809,2.196
	v5.924C155.691,551.46,156.969,551.55,156.969,551.55z"/>
<path fill="none" stroke="#000000" stroke-miterlimit="10" d="M167.499,543.97c0.036-0.45-0.558-1.71-2.827-1.801
	c-2.269-0.054-3.313,0.667-3.313,2.053c0,1.404,1.17,1.836,1.603,1.962l3.403,1.008c0.45,0.108,1.53,0.594,1.53,1.927
	s-1.422,2.431-3.223,2.431c-1.801,0-3.439-0.954-3.439-2.359c0,1.405,1.638,2.359,3.439,2.359c1.8,0,3.223-1.098,3.223-2.431
	s-1.08-1.819-1.53-1.927l-3.403-1.008c-0.433-0.126-1.603-0.558-1.603-1.962c0-1.386,1.044-2.107,3.313-2.053
	C166.94,542.26,167.535,543.52,167.499,543.97z"/>
<path fill="none" stroke="#000000" stroke-miterlimit="10" d="M180.153,546.617c0-1.999-0.792-4.555-3.655-4.555
	c-2.845,0-4.412,1.944-4.412,4.916c0,2.989,2.017,4.573,4.412,4.501c2.413-0.072,3.457-1.945,3.583-2.611
	c-0.126,0.666-1.17,2.539-3.583,2.611c-2.395,0.072-4.412-1.513-4.412-4.501c0-2.971,1.567-4.916,4.412-4.916
	C179.361,542.062,180.153,544.618,180.153,546.617h-8.048H180.153z"/>
<path fill="none" stroke="#000000" stroke-miterlimit="10" d="M186.595,546.833c-0.054-2.071,1.854-4.538,3.529-4.52
	C188.45,542.295,186.541,544.762,186.595,546.833z M186.595,551.55v-9.237V551.55z"/>
<path fill="none" stroke="#000000" stroke-miterlimit="10" d="M203.262,547.625c0,2.881,2.197,4.033,4.771,4.033
	c2.611,0,4.25-1.638,4.304-3.241c0.054-1.584-0.756-2.845-2.359-3.187l-4.412-0.954c-1.242-0.271-1.98-0.991-1.98-2.683
	s1.422-3.151,4.015-3.151s4.483,1.225,4.412,3.367c0.072-2.143-1.819-3.367-4.412-3.367s-4.015,1.458-4.015,3.151
	s0.702,2.395,1.98,2.683l4.412,0.954c1.638,0.342,2.413,1.603,2.359,3.187c-0.054,1.603-1.693,3.241-4.304,3.241
	C205.459,551.658,203.262,550.506,203.262,547.625z"/>
<path fill="none" stroke="#000000" stroke-miterlimit="10" d="M216.726,546.617h8.049c0-1.999-0.792-4.555-3.655-4.555
	c-2.845,0-4.411,1.944-4.411,4.916c0,2.989,2.017,4.573,4.411,4.501c2.413-0.072,3.457-1.945,3.583-2.611
	c-0.126,0.666-1.17,2.539-3.583,2.611c-2.395,0.072-4.411-1.513-4.411-4.501c0-2.971,1.566-4.916,4.411-4.916
	c2.863,0,3.655,2.557,3.655,4.555H216.726z"/>
<path fill="none" stroke="#000000" stroke-miterlimit="10" d="M229.218,542.224h3.763H229.218z M232.945,551.46
	c-0.882,0.054-1.837,0.09-1.837-1.117c0-1.224,0-11.523,0-11.523s0,10.299,0,11.523C231.108,551.55,232.063,551.514,232.945,551.46z
	"/>
<path fill="none" stroke="#000000" stroke-miterlimit="10" d="M237.03,542.224h3.763H237.03z M240.757,551.46
	c-0.882,0.054-1.837,0.09-1.837-1.117c0-1.224,0-11.523,0-11.523s0,10.299,0,11.523C238.92,551.55,239.875,551.514,240.757,551.46z"
	/>
<path fill="none" stroke="#000000" stroke-miterlimit="10" d="M246.805,538.875v-0.324V538.875z M246.805,551.532v-9.237
	C246.805,542.295,246.805,551.568,246.805,551.532z"/>
<path fill="none" stroke="#000000" stroke-miterlimit="10" d="M261.368,551.55c0,0,0-6.014,0-6.842c0-0.828-0.828-2.376-3.115-2.395
	c-2.305-0.018-3.511,1.765-3.511,3.421c0-1.656,1.207-3.439,3.511-3.421c2.287,0.018,3.115,1.566,3.115,2.395
	C261.368,545.537,261.368,551.55,261.368,551.55z M254.742,551.55v-9.237V551.55z"/>
<path fill="none" stroke="#000000" stroke-miterlimit="10" d="M270.367,542.224c2.089,0,3.817,1.044,3.817,4.646
	c0,3.601-1.729,4.645-3.817,4.645c-2.088,0-3.799-1.044-3.799-4.645C266.568,543.268,268.278,542.224,270.367,542.224z
	 M270.367,542.224c2.089,0,3.817,1.044,3.817,4.646c0,3.601-1.729,4.645-3.817,4.645c-2.088,0-3.799-1.044-3.799-4.645
	C266.568,543.268,268.278,542.224,270.367,542.224z M267.108,553.423c0.198,1.08,1.512,1.692,3.313,1.765
	c1.836,0.054,3.763-1.296,3.763-2.971c0-1.692,0-9.849,0-9.849s0,8.156,0,9.849c0,1.675-1.927,3.025-3.763,2.971
	C268.62,555.115,267.306,554.503,267.108,553.423z"/>
<path fill="none" stroke="#000000" stroke-miterlimit="10" d="M284.695,543.97c0.036-0.45-0.558-1.71-2.827-1.801
	c-2.269-0.054-3.313,0.667-3.313,2.053c0,1.404,1.17,1.836,1.602,1.962l3.403,1.008c0.45,0.108,1.53,0.594,1.53,1.927
	s-1.422,2.431-3.223,2.431c-1.801,0-3.439-0.954-3.439-2.359c0,1.405,1.639,2.359,3.439,2.359c1.8,0,3.223-1.098,3.223-2.431
	s-1.08-1.819-1.53-1.927l-3.403-1.008c-0.432-0.126-1.602-0.558-1.602-1.962c0-1.386,1.044-2.107,3.313-2.053
	C284.137,542.26,284.731,543.52,284.695,543.97z"/>
<path fill="none" stroke="#F58220" stroke-width="0.7087" stroke-linecap="round" stroke-linejoin="round" stroke-miterlimit="22.9256" d="
	M135.277,609.76c0-4.97,2.575-6.734,5.726-6.734s5.726,1.764,5.726,6.734c0,4.969-2.575,6.698-5.726,6.698
	S135.277,614.729,135.277,609.76z M135.277,609.76c0-4.97,2.575-6.734,5.726-6.734s5.726,1.764,5.726,6.734
	c0,4.969-2.575,6.698-5.726,6.698S135.277,614.729,135.277,609.76z"/>
<path fill="none" stroke="#F58220" stroke-width="0.7087" stroke-linecap="round" stroke-linejoin="round" stroke-miterlimit="22.9256" d="
	M153.17,611.633c-0.054-2.071,1.854-4.538,3.529-4.52C155.024,607.095,153.116,609.562,153.17,611.633z M153.17,616.35v-9.237
	V616.35z"/>
<path fill="none" stroke="#F58220" stroke-width="0.7087" stroke-linecap="round" stroke-linejoin="round" stroke-miterlimit="22.9256" d="
	M163.52,616.458c-1.495-0.054-2.683-0.522-2.683-2.179c0-1.674,1.009-2.376,2.917-2.557c1.891-0.18,2.737-0.468,3.637-0.72
	c-0.9,0.252-1.747,0.54-3.637,0.72c-1.908,0.18-2.917,0.882-2.917,2.557C160.836,615.936,162.025,616.404,163.52,616.458
	c1.477,0.054,3.331-1.692,3.871-2.467C166.851,614.766,164.996,616.512,163.52,616.458z M167.391,615.18v-5.924
	c0-0.756-0.378-2.196-2.809-2.196c-2.431,0-3.331,1.098-3.331,2.232c0-1.134,0.9-2.232,3.331-2.232c2.431,0,2.809,1.44,2.809,2.196
	V615.18c0,1.081,1.278,1.17,1.278,1.17S167.391,616.26,167.391,615.18z"/>
<path fill="none" stroke="#F58220" stroke-width="0.7087" stroke-linecap="round" stroke-linejoin="round" stroke-miterlimit="22.9256" d="
	M181.503,616.35c0,0,0-6.014,0-6.842c0-0.828-0.828-2.376-3.115-2.395c-2.305-0.018-3.511,1.765-3.511,3.421
	c0-1.656,1.207-3.439,3.511-3.421c2.287,0.018,3.115,1.566,3.115,2.395C181.503,610.336,181.503,616.35,181.503,616.35z
	 M174.877,616.35v-9.237V616.35z"/>
<path fill="none" stroke="#F58220" stroke-width="0.7087" stroke-linecap="round" stroke-linejoin="round" stroke-miterlimit="22.9256" d="
	M190.502,607.023c2.089,0,3.817,1.044,3.817,4.646c0,3.601-1.729,4.645-3.817,4.645c-2.088,0-3.799-1.044-3.799-4.645
	C186.703,608.067,188.414,607.023,190.502,607.023z M190.502,607.023c2.089,0,3.817,1.044,3.817,4.646
	c0,3.601-1.729,4.645-3.817,4.645c-2.088,0-3.799-1.044-3.799-4.645C186.703,608.067,188.414,607.023,190.502,607.023z
	 M187.243,618.223c0.198,1.08,1.512,1.692,3.313,1.765c1.836,0.054,3.763-1.296,3.763-2.971c0-1.692,0-9.849,0-9.849
	s0,8.156,0,9.849c0,1.675-1.927,3.025-3.763,2.971C188.755,619.915,187.441,619.303,187.243,618.223z"/>
<path fill="none" stroke="#F58220" stroke-width="0.7087" stroke-linecap="round" stroke-linejoin="round" stroke-miterlimit="22.9256" d="
	M206.631,611.417c0-1.999-0.792-4.555-3.655-4.555c-2.845,0-4.411,1.944-4.411,4.916c0,2.989,2.017,4.573,4.411,4.501
	c2.413-0.072,3.457-1.945,3.583-2.611c-0.126,0.666-1.17,2.539-3.583,2.611c-2.395,0.072-4.411-1.513-4.411-4.501
	c0-2.971,1.566-4.916,4.411-4.916C205.839,606.861,206.631,609.418,206.631,611.417h-8.049H206.631z"/>
<path fill="none" stroke="#F58220" stroke-width="0.7087" stroke-linecap="round" stroke-linejoin="round" stroke-miterlimit="22.9256" d="
	M213.019,610.66v-0.99V610.66z M213.019,616.35v-0.99V616.35z"/>
<path fill="none" stroke="#F58220" stroke-width="0.7087" stroke-linecap="round" stroke-linejoin="round" stroke-miterlimit="22.9256" d="
	M231.667,616.35l-3.655-9.237L231.667,616.35l3.691-9.237L231.667,616.35z"/>
<path fill="none" stroke="#F58220" stroke-width="0.7087" stroke-linecap="round" stroke-linejoin="round" stroke-miterlimit="22.9256" d="
	M239.604,611.417h8.049c0-1.999-0.792-4.555-3.655-4.555c-2.845,0-4.411,1.944-4.411,4.916c0,2.989,2.017,4.573,4.411,4.501
	c2.413-0.072,3.457-1.945,3.583-2.611c-0.126,0.666-1.17,2.539-3.583,2.611c-2.395,0.072-4.411-1.513-4.411-4.501
	c0-2.971,1.566-4.916,4.411-4.916c2.863,0,3.655,2.557,3.655,4.555H239.604z"/>
<path fill="none" stroke="#F58220" stroke-width="0.7087" stroke-linecap="round" stroke-linejoin="round" stroke-miterlimit="22.9256" d="
	M259.424,613.415c-0.054,1.513-1.675,2.935-3.205,2.935c-1.513,0-4.123-0.252-4.123-4.771c0-4.501,2.917-4.555,4.195-4.555
	c1.279,0,2.971,0.99,3.079,2.25c-0.108-1.26-1.8-2.25-3.079-2.25c-1.278,0-4.195,0.054-4.195,4.555c0,4.52,2.61,4.771,4.123,4.771
	C257.75,616.35,259.37,614.928,259.424,613.415z"/>
<path fill="none" stroke="#F58220" stroke-width="0.7087" stroke-linecap="round" stroke-linejoin="round" stroke-miterlimit="22.9256" d="
	M263.652,607.023h3.763H263.652z M267.379,616.26c-0.882,0.054-1.837,0.09-1.837-1.117c0-1.224,0-11.523,0-11.523s0,10.299,0,11.523
	C265.542,616.35,266.497,616.314,267.379,616.26z"/>
<path fill="none" stroke="#F58220" stroke-width="0.7087" stroke-linecap="round" stroke-linejoin="round" stroke-miterlimit="22.9256" d="
	M271.464,611.633c0-3.637,1.854-4.7,4.087-4.7c2.251,0,4.087,1.062,4.087,4.7c0,3.655-1.836,4.717-4.087,4.717
	C273.319,616.35,271.464,615.288,271.464,611.633z M271.464,611.633c0-3.637,1.854-4.7,4.087-4.7c2.251,0,4.087,1.062,4.087,4.7
	c0,3.655-1.836,4.717-4.087,4.717C273.319,616.35,271.464,615.288,271.464,611.633z"/>
<path fill="none" stroke="#F58220" stroke-width="0.7087" stroke-linecap="round" stroke-linejoin="round" stroke-miterlimit="22.9256" d="
	M285.918,611.633c-0.054-2.071,1.854-4.538,3.529-4.52C287.773,607.095,285.864,609.562,285.918,611.633z M285.918,616.35v-9.237
	V616.35z"/>
<path fill="none" stroke="#F58220" stroke-width="0.7087" stroke-linecap="round" stroke-linejoin="round" stroke-miterlimit="22.9256" d="
	M302.603,611.417h8.049c0-1.999-0.792-4.555-3.655-4.555c-2.845,0-4.411,1.944-4.411,4.916c0,2.989,2.017,4.573,4.411,4.501
	c2.413-0.072,3.457-1.945,3.583-2.611c-0.126,0.666-1.17,2.539-3.583,2.611c-2.395,0.072-4.411-1.513-4.411-4.501
	c0-2.971,1.566-4.916,4.411-4.916c2.863,0,3.655,2.557,3.655,4.555H302.603z"/>
<path fill="none" stroke="#F58220" stroke-width="0.7087" stroke-linecap="round" stroke-linejoin="round" stroke-miterlimit="22.9256" d="
	M315.095,607.023h3.763H315.095z M318.823,616.26c-0.882,0.054-1.837,0.09-1.837-1.117c0-1.224,0-11.523,0-11.523s0,10.299,0,11.523
	C316.986,616.35,317.94,616.314,318.823,616.26z"/>
<path fill="none" stroke="#F58220" stroke-width="0.7087" stroke-linecap="round" stroke-linejoin="round" stroke-miterlimit="22.9256" d="
	M327.03,616.35c-1.513,0-4.124-0.252-4.124-4.771c0-4.501,2.917-4.555,4.195-4.555s2.971,0.99,3.079,2.25
	c-0.108-1.26-1.801-2.25-3.079-2.25s-4.195,0.054-4.195,4.555C322.907,616.098,325.518,616.35,327.03,616.35
	c1.53,0,3.151-1.422,3.205-2.935C330.181,614.928,328.561,616.35,327.03,616.35z"/>
<path fill="none" stroke="#F58220" stroke-width="0.7087" stroke-linecap="round" stroke-linejoin="round" stroke-miterlimit="22.9256" d="
	M336.408,616.35v-12.982V616.35z M343.142,616.35c0,0,0-4.681,0-6.32s-0.99-2.881-2.917-2.917c-1.963-0.036-3.817,1.152-3.817,2.719
	c0-1.566,1.854-2.755,3.817-2.719c1.926,0.036,2.917,1.278,2.917,2.917S343.142,616.35,343.142,616.35z"/>
<path fill="none" stroke="#000000" stroke-miterlimit="10" d="M137.222,631.27h4.987c2.593,0,3.655-1.566,3.601-3.133
	c-0.072-1.566-1.17-3.169-3.565-3.169h-5.023v12.982h5.528c2.052,0,3.673-1.225,3.673-3.277c-0.036-2.053-1.747-3.403-4.213-3.403
	c2.467,0,4.177,1.351,4.213,3.403c0,2.052-1.621,3.277-3.673,3.277h-5.528v-12.982h5.023c2.395,0,3.493,1.603,3.565,3.169
	c0.054,1.566-1.008,3.133-3.601,3.133H137.222z"/>
<path fill="none" stroke="#000000" stroke-miterlimit="10" d="M152.792,637.95v-12.982V637.95z"/>
<path fill="none" stroke="#000000" stroke-miterlimit="10" d="M161.468,638.058c-1.495-0.054-2.683-0.522-2.683-2.179
	c0-1.674,1.009-2.376,2.917-2.557c1.891-0.18,2.737-0.468,3.637-0.72c-0.9,0.252-1.747,0.54-3.637,0.72
	c-1.908,0.18-2.917,0.882-2.917,2.557C158.785,637.536,159.973,638.004,161.468,638.058c1.477,0.054,3.331-1.692,3.871-2.467
	C164.799,636.366,162.944,638.112,161.468,638.058z M165.339,636.78v-5.924c0-0.756-0.378-2.197-2.809-2.197
	c-2.431,0-3.331,1.099-3.331,2.233c0-1.134,0.9-2.233,3.331-2.233c2.431,0,2.809,1.44,2.809,2.197V636.78
	c0,1.081,1.278,1.17,1.278,1.17S165.339,637.86,165.339,636.78z"/>
<path fill="none" stroke="#000000" stroke-miterlimit="10" d="M175.004,637.95c-1.513,0-4.124-0.252-4.124-4.771
	c0-4.501,2.917-4.555,4.195-4.555s2.971,0.99,3.079,2.25c-0.108-1.26-1.801-2.25-3.079-2.25s-4.195,0.054-4.195,4.555
	C170.88,637.698,173.491,637.95,175.004,637.95c1.53,0,3.151-1.422,3.205-2.935C178.155,636.528,176.534,637.95,175.004,637.95z"/>
<path fill="none" stroke="#000000" stroke-miterlimit="10" d="M184.381,637.95v-3.637l2.485-2.413l3.925,6.05l-3.925-6.05
	l3.313-3.187l-5.798,5.6v-9.345V637.95z"/>
<path fill="none" stroke="#000000" stroke-miterlimit="10" d="M197.017,632.261v-0.991V632.261z M197.017,637.95v-0.99V637.95z"/>
<path fill="none" stroke="#000000" stroke-miterlimit="10" d="M219.357,628.713l-3.691,9.237l-3.655-9.237l3.655,9.237
	L219.357,628.713z"/>
<path fill="none" stroke="#000000" stroke-miterlimit="10" d="M223.602,633.017h8.049c0-1.999-0.792-4.555-3.655-4.555
	c-2.845,0-4.411,1.944-4.411,4.916c0,2.989,2.017,4.573,4.411,4.501c2.413-0.072,3.457-1.944,3.583-2.61
	c-0.126,0.666-1.17,2.539-3.583,2.61c-2.395,0.072-4.411-1.512-4.411-4.501c0-2.971,1.566-4.916,4.411-4.916
	c2.863,0,3.655,2.557,3.655,4.555H223.602z"/>
<path fill="none" stroke="#000000" stroke-miterlimit="10" d="M240.218,637.95c-1.513,0-4.124-0.252-4.124-4.771
	c0-4.501,2.917-4.555,4.195-4.555s2.971,0.99,3.079,2.25c-0.108-1.26-1.801-2.25-3.079-2.25s-4.195,0.054-4.195,4.555
	C236.094,637.698,238.705,637.95,240.218,637.95c1.53,0,3.151-1.422,3.205-2.935C243.369,636.528,241.748,637.95,240.218,637.95z"/>
<path fill="none" stroke="#000000" stroke-miterlimit="10" d="M247.65,628.624h3.763H247.65z M251.377,637.86
	c-0.882,0.054-1.837,0.09-1.837-1.117c0-1.224,0-11.523,0-11.523s0,10.299,0,11.523C249.541,637.95,250.495,637.914,251.377,637.86z
	"/>
<path fill="none" stroke="#000000" stroke-miterlimit="10" d="M255.462,633.233c0-3.637,1.854-4.7,4.087-4.7
	c2.251,0,4.087,1.062,4.087,4.7c0,3.655-1.836,4.717-4.087,4.717C257.317,637.95,255.462,636.888,255.462,633.233z M255.462,633.233
	c0-3.637,1.854-4.7,4.087-4.7c2.251,0,4.087,1.062,4.087,4.7c0,3.655-1.836,4.717-4.087,4.717
	C257.317,637.95,255.462,636.888,255.462,633.233z"/>
<path fill="none" stroke="#000000" stroke-miterlimit="10" d="M269.917,633.233c-0.054-2.071,1.854-4.538,3.529-4.52
	C271.771,628.695,269.862,631.162,269.917,633.233z M269.917,637.95v-9.237V637.95z"/>
<path fill="none" stroke="#000000" stroke-miterlimit="10" d="M290.707,637.95c-1.513,0-4.124-0.252-4.124-4.771
	c0-4.501,2.917-4.555,4.195-4.555s2.971,0.99,3.079,2.25c-0.108-1.26-1.801-2.25-3.079-2.25s-4.195,0.054-4.195,4.555
	C286.583,637.698,289.194,637.95,290.707,637.95c1.53,0,3.151-1.422,3.205-2.935C293.858,636.528,292.237,637.95,290.707,637.95z"/>
<path fill="none" stroke="#000000" stroke-miterlimit="10" d="M299.058,628.677c0,0,0,6.032,0,6.86c0,0.828,0.828,2.376,3.115,2.395
	c2.305,0.018,3.529-1.765,3.529-3.421c0,1.656-1.225,3.439-3.529,3.421c-2.287-0.018-3.115-1.566-3.115-2.395
	C299.058,634.709,299.058,628.677,299.058,628.677z M305.702,628.677v9.255V628.677z"/>
<path fill="none" stroke="#000000" stroke-miterlimit="10" d="M311.982,628.624h3.763H311.982z M315.709,637.86
	c-0.882,0.054-1.837,0.09-1.837-1.117c0-1.224,0-11.523,0-11.523s0,10.299,0,11.523C313.872,637.95,314.827,637.914,315.709,637.86z
	"/>
<path fill="none" stroke="#FFF200" stroke-width="0.7087" stroke-linecap="round" stroke-linejoin="round" d="M139.995,653.302
	l4.717-6.734L139.995,653.302l-4.718-6.734L139.995,653.302v6.248V653.302z"/>
<path fill="none" stroke="#FFF200" stroke-width="0.7087" stroke-linecap="round" stroke-linejoin="round" d="M149.065,654.617
	h8.049c0-1.999-0.792-4.555-3.655-4.555c-2.845,0-4.411,1.944-4.411,4.916c0,2.989,2.017,4.573,4.411,4.501
	c2.413-0.072,3.457-1.945,3.583-2.611c-0.126,0.666-1.17,2.539-3.583,2.611c-2.395,0.072-4.411-1.513-4.411-4.501
	c0-2.971,1.566-4.916,4.411-4.916c2.863,0,3.655,2.557,3.655,4.555H149.065z"/>
<path fill="none" stroke="#FFF200" stroke-width="0.7087" stroke-linecap="round" stroke-linejoin="round" d="M163.501,659.55
	v-12.982V659.55z"/>
<path fill="none" stroke="#FFF200" stroke-width="0.7087" stroke-linecap="round" stroke-linejoin="round" d="M171.439,659.55
	v-12.982V659.55z"/>
<path fill="none" stroke="#FFF200" stroke-width="0.7087" stroke-linecap="round" stroke-linejoin="round" d="M177.433,654.833
	c0-3.637,1.854-4.7,4.087-4.7c2.251,0,4.087,1.062,4.087,4.7c0,3.655-1.836,4.717-4.087,4.717
	C179.288,659.55,177.433,658.488,177.433,654.833z M177.433,654.833c0-3.637,1.854-4.7,4.087-4.7c2.251,0,4.087,1.062,4.087,4.7
	c0,3.655-1.836,4.717-4.087,4.717C179.288,659.55,177.433,658.488,177.433,654.833z"/>
<path fill="none" stroke="#FFF200" stroke-width="0.7087" stroke-linecap="round" stroke-linejoin="round" d="M192.553,659.55
	l3.187-9.237l3.205,9.237l2.665-9.237l-2.665,9.237l-3.205-9.237L192.553,659.55l-2.665-9.237L192.553,659.55z"/>
<path fill="none" stroke="#FFF200" stroke-width="0.7087" stroke-linecap="round" stroke-linejoin="round" d="M207.997,653.86v-0.99
	V653.86z M207.997,659.55v-0.99V659.55z"/>
<path fill="none" stroke="#FFF200" stroke-width="0.7087" stroke-linecap="round" stroke-linejoin="round" d="M230.336,650.313
	l-3.691,9.237l-3.655-9.237l3.655,9.237L230.336,650.313z"/>
<path fill="none" stroke="#FFF200" stroke-width="0.7087" stroke-linecap="round" stroke-linejoin="round" d="M242.63,654.617
	c0-1.999-0.792-4.555-3.655-4.555c-2.845,0-4.412,1.944-4.412,4.916c0,2.989,2.017,4.573,4.412,4.501
	c2.413-0.072,3.457-1.945,3.583-2.611c-0.126,0.666-1.17,2.539-3.583,2.611c-2.395,0.072-4.412-1.513-4.412-4.501
	c0-2.971,1.567-4.916,4.412-4.916C241.838,650.062,242.63,652.618,242.63,654.617h-8.048H242.63z"/>
<path fill="none" stroke="#FFF200" stroke-width="0.7087" stroke-linecap="round" stroke-linejoin="round" d="M251.197,659.55
	c-1.513,0-4.124-0.252-4.124-4.771c0-4.501,2.917-4.555,4.195-4.555s2.971,0.99,3.079,2.25c-0.108-1.26-1.801-2.25-3.079-2.25
	s-4.195,0.054-4.195,4.555C247.074,659.298,249.685,659.55,251.197,659.55c1.53,0,3.151-1.422,3.205-2.935
	C254.348,658.128,252.728,659.55,251.197,659.55z"/>
<path fill="none" stroke="#FFF200" stroke-width="0.7087" stroke-linecap="round" stroke-linejoin="round" d="M258.63,650.224h3.763
	H258.63z M262.357,659.46c-0.882,0.054-1.837,0.09-1.837-1.117c0-1.224,0-11.523,0-11.523s0,10.299,0,11.523
	C260.521,659.55,261.475,659.514,262.357,659.46z"/>
<path fill="none" stroke="#FFF200" stroke-width="0.7087" stroke-linecap="round" stroke-linejoin="round" d="M266.442,654.833
	c0-3.637,1.854-4.7,4.087-4.7c2.251,0,4.087,1.062,4.087,4.7c0,3.655-1.836,4.717-4.087,4.717
	C268.296,659.55,266.442,658.488,266.442,654.833z M266.442,654.833c0-3.637,1.854-4.7,4.087-4.7c2.251,0,4.087,1.062,4.087,4.7
	c0,3.655-1.836,4.717-4.087,4.717C268.296,659.55,266.442,658.488,266.442,654.833z"/>
<path fill="none" stroke="#FFF200" stroke-width="0.7087" stroke-linecap="round" stroke-linejoin="round" d="M280.896,654.833
	c-0.054-2.071,1.854-4.538,3.529-4.52C282.751,650.295,280.842,652.762,280.896,654.833z M280.896,659.55v-9.237V659.55z"/>
<path fill="none" stroke="#FFF200" stroke-width="0.7087" stroke-linecap="round" stroke-linejoin="round" d="M304.892,656.615
	c-0.054,1.513-1.675,2.935-3.205,2.935c-1.513,0-4.124-0.252-4.124-4.771c0-4.501,2.917-4.555,4.195-4.555s2.971,0.99,3.079,2.25
	c-0.108-1.26-1.801-2.25-3.079-2.25s-4.195,0.054-4.195,4.555c0,4.52,2.611,4.771,4.124,4.771
	C303.217,659.55,304.837,658.128,304.892,656.615z"/>
<path fill="none" stroke="#FFF200" stroke-width="0.7087" stroke-linecap="round" stroke-linejoin="round" d="M310.038,650.277
	c0,0,0,6.032,0,6.86s0.828,2.376,3.115,2.395c2.305,0.018,3.529-1.765,3.529-3.421c0,1.656-1.224,3.439-3.529,3.421
	c-2.287-0.018-3.115-1.566-3.115-2.395S310.038,650.277,310.038,650.277z M316.682,650.277v9.255V650.277z"/>
<path fill="none" stroke="#FFF200" stroke-width="0.7087" stroke-linecap="round" stroke-linejoin="round" d="M322.961,650.224
	h3.763H322.961z M326.688,659.46c-0.882,0.054-1.837,0.09-1.837-1.117c0-1.224,0-11.523,0-11.523s0,10.299,0,11.523
	C324.852,659.55,325.806,659.514,326.688,659.46z"/>
<text transform="matrix(1 0 0 1 133.3325 727.0952)"><tspan x="0" y="0" fill="none" stroke="#000000" stroke-miterlimit="10" font-family="'Eng_HelvLine'" font-size="18">B.O.M.</tspan><tspan x="0" y="64.8" fill="none" stroke="#000000" stroke-miterlimit="10" font-family="'Eng_HelvLine'" font-size="18">For more information see https://github.com/abopen/parallella-open-case</tspan></text>
</svg>
